<?xml version="1.0" standalone="no"?>
<!DOCTYPE svg PUBLIC "-//W3C//DTD SVG 20010904//EN"
 "http://www.w3.org/TR/2001/REC-SVG-20010904/DTD/svg10.dtd">
<svg version="1.0" xmlns="http://www.w3.org/2000/svg"
 width="700.000000pt" height="700.000000pt" viewBox="0 0 700.000000 700.000000"
 preserveAspectRatio="xMidYMid meet">
<metadata>
Created by potrace 1.11, written by Peter Selinger 2001-2013
</metadata>
<g transform="translate(0.000000,700.000000) scale(0.100000,-0.100000)"
fill="#000000" stroke="none">
<path d="M3499 5263 c-1 -1491 -3 -1730 -14 -1683 -8 30 -17 73 -20 95 -4 22
-20 105 -36 185 -17 80 -32 156 -35 170 -3 14 -18 91 -34 171 -16 81 -32 160
-34 175 -3 16 -21 108 -41 204 -19 96 -38 189 -41 205 -3 17 -16 84 -29 150
-14 66 -26 131 -29 145 -2 14 -7 36 -10 50 -3 14 -8 36 -10 50 -2 14 -11 59
-20 100 -8 41 -17 86 -20 100 -2 14 -11 59 -20 100 -8 41 -17 86 -20 100 -2
14 -16 81 -30 150 -14 69 -32 161 -40 205 -9 44 -29 148 -46 230 -17 83 -33
166 -36 185 -3 19 -7 43 -10 52 -3 10 -7 30 -10 45 -3 16 -7 35 -9 43 -2 8 -7
31 -10 50 -3 19 -22 112 -41 207 -18 94 -34 174 -34 177 0 24 -381 -81 -586
-162 -51 -19 -69 -31 -66 -42 4 -14 158 -387 187 -455 7 -16 68 -163 134 -325
67 -162 126 -304 131 -315 9 -19 228 -548 275 -665 40 -99 387 -934 400 -965
11 -24 79 -187 167 -402 6 -15 12 -32 14 -38 1 -5 5 -19 9 -30 4 -11 -14 15
-41 58 -174 276 -1882 2816 -1894 2816 -14 1 -253 -174 -298 -216 -10 -10 -55
-49 -98 -88 -44 -38 -90 -82 -102 -97 l-23 -27 1211 -1211 c667 -667 1209
-1214 1207 -1217 -3 -2 -351 227 -774 510 -1434 959 -2068 1382 -2078 1385
-12 3 -70 -89 -170 -270 -80 -144 -158 -319 -148 -329 4 -4 91 -42 193 -84
102 -42 204 -85 227 -96 23 -10 44 -19 47 -19 6 0 636 -260 691 -285 17 -7 55
-23 85 -35 30 -12 69 -28 85 -35 17 -8 134 -57 261 -109 127 -52 244 -101 260
-107 16 -7 31 -13 34 -14 10 -3 65 -26 95 -40 16 -7 197 -82 400 -165 204 -84
384 -158 400 -166 104 -46 381 -156 396 -157 11 -1 19 -5 19 -10 0 -9 -8 -8
-110 12 -30 6 -66 12 -80 15 -14 2 -72 14 -130 26 -58 12 -114 23 -125 25 -20
3 -224 43 -260 51 -11 3 -51 11 -90 18 -74 15 -233 47 -250 50 -5 2 -28 6 -50
10 -22 5 -366 73 -765 152 -398 80 -738 147 -755 150 -16 2 -37 7 -45 9 -8 2
-26 6 -40 9 -19 3 -401 79 -515 102 -111 23 -178 33 -185 29 -4 -3 -11 -31
-16 -62 -4 -32 -8 -60 -9 -63 -2 -8 -15 -101 -21 -155 -3 -27 -8 -63 -10 -80
-2 -16 -6 -94 -9 -172 l-5 -143 1732 0 c953 0 1739 -4 1747 -9 9 -6 10 -11 2
-15 -6 -4 -11 -2 -11 4 0 15 -25 11 -245 -34 -93 -19 -185 -38 -203 -41 -18
-3 -64 -12 -102 -20 -38 -8 -82 -17 -97 -20 -16 -3 -39 -7 -53 -10 -20 -5
-158 -32 -310 -61 -14 -3 -113 -23 -220 -44 -107 -22 -206 -41 -220 -44 -14
-2 -70 -14 -125 -25 -55 -12 -113 -24 -130 -26 -16 -3 -50 -10 -75 -15 -25 -5
-56 -12 -70 -14 -14 -3 -50 -10 -80 -16 -30 -6 -66 -13 -80 -16 -44 -8 -631
-125 -735 -146 -55 -11 -111 -22 -125 -24 -109 -21 -526 -106 -529 -109 -8 -8
55 -251 105 -405 57 -174 90 -254 102 -247 19 11 117 52 627 262 303 125 564
232 580 240 17 7 98 41 180 74 83 34 159 66 170 71 11 5 38 16 60 25 114 47
308 127 904 374 427 178 657 269 664 262 12 -12 87 102 -918 -1400 -467 -699
-857 -1282 -865 -1295 -8 -13 -36 -55 -62 -93 -62 -92 -63 -95 -31 -114 16 -9
69 -42 120 -73 120 -73 424 -226 449 -226 6 0 44 90 194 455 4 11 15 36 23 55
14 33 78 185 475 1145 93 226 234 565 312 755 78 190 146 354 151 365 5 11 48
112 94 225 47 113 83 189 80 170 -7 -48 -4 -33 -116 -595 -55 -275 -102 -513
-105 -530 -3 -16 -9 -48 -14 -70 -5 -22 -12 -56 -15 -75 -3 -19 -8 -42 -10
-50 -2 -8 -7 -31 -10 -50 -3 -19 -19 -100 -35 -180 -16 -80 -32 -161 -35 -180
-3 -19 -8 -42 -10 -50 -2 -8 -6 -26 -9 -40 -3 -14 -10 -50 -16 -80 -6 -30 -14
-68 -17 -85 -2 -16 -18 -93 -33 -170 -16 -77 -31 -151 -34 -165 -2 -14 -19
-95 -36 -180 -17 -85 -47 -236 -66 -335 -19 -99 -37 -189 -40 -199 -39 -189
-64 -328 -60 -335 3 -5 29 -12 58 -16 29 -4 62 -9 73 -11 11 -2 38 -6 60 -9
22 -2 56 -7 75 -10 74 -10 135 -15 270 -21 l140 -5 2 1738 c2 1150 6 1738 13
1739 6 0 17 4 26 8 10 4 34 3 55 -3 22 -6 55 -13 74 -16 19 -3 78 -14 130 -25
52 -10 109 -21 125 -24 17 -3 118 -23 225 -45 107 -22 206 -42 220 -44 14 -3
232 -46 485 -97 253 -50 471 -94 485 -96 34 -7 842 -168 1225 -244 171 -35
323 -63 339 -64 29 -1 30 1 42 66 7 36 15 90 19 120 3 29 8 64 10 78 9 48 15
126 20 268 l6 142 -1756 -2 c-965 -2 -1755 -1 -1755 2 1 12 20 34 20 23 0 -15
28 -14 115 3 79 15 109 21 180 34 28 5 106 20 175 35 69 14 135 27 147 30 13
2 58 11 100 19 43 9 89 18 103 21 14 3 59 12 100 20 41 8 86 17 99 20 14 2 93
18 175 35 83 16 162 31 176 34 14 2 45 9 70 15 25 5 61 13 80 16 19 3 123 23
230 45 107 21 211 42 230 45 19 3 53 10 75 15 30 7 612 123 880 176 11 2 43 8
70 14 28 6 61 12 75 15 21 4 107 21 145 30 6 1 33 6 60 10 28 5 52 10 55 10 3
1 22 5 43 10 37 7 39 9 32 39 -3 17 -9 45 -12 61 -18 105 -158 536 -181 556
-4 3 -77 -23 -162 -58 -320 -133 -446 -186 -475 -198 -16 -7 -109 -45 -205
-85 -96 -39 -188 -77 -205 -85 -16 -7 -239 -99 -495 -205 -256 -106 -481 -199
-500 -207 -19 -8 -44 -19 -55 -24 -11 -4 -96 -40 -190 -78 -378 -156 -783
-323 -836 -346 -68 -30 -80 -31 -48 -6 19 14 2663 1783 2811 1880 37 24 38 25
21 50 -30 47 -181 245 -222 291 -22 25 -59 68 -83 95 -23 28 -59 65 -80 83
l-37 33 -1216 -1216 c-669 -669 -1219 -1214 -1222 -1211 -4 3 1 14 9 23 14 17
235 346 1439 2148 250 374 455 685 457 690 3 14 -228 152 -377 226 -112 55
-207 99 -217 99 -6 0 -18 -28 -153 -355 -61 -148 -116 -279 -121 -290 -5 -11
-48 -114 -95 -230 -48 -115 -93 -223 -100 -240 -7 -16 -202 -488 -434 -1047
-265 -643 -418 -1024 -414 -1035 5 -14 3 -15 -6 -7 -12 11 18 173 164 904 2 8
35 175 74 370 38 195 72 366 75 380 3 14 8 39 11 55 3 17 23 118 45 225 21
107 42 209 45 225 3 17 7 39 9 50 2 11 13 67 25 125 12 58 23 114 25 125 2 11
39 193 81 405 42 212 79 394 81 405 2 11 9 44 15 72 5 29 8 57 5 61 -3 5 -25
12 -48 15 -24 4 -88 13 -143 21 -139 21 -180 24 -343 31 l-142 7 -1 -1739z"/>
<path d="M3537 3473 c-4 -3 -7 -11 -7 -17 0 -7 3 -6 8 1 6 9 209 -122 698
-449 1422 -952 2159 -1443 2169 -1446 6 -1 22 16 35 39 14 23 33 53 42 68 9
14 43 73 74 131 31 58 62 114 69 125 31 52 105 229 98 236 -4 4 -141 62 -303
129 -162 67 -319 133 -348 146 -29 13 -55 24 -57 24 -5 0 -398 161 -450 185
-16 7 -52 22 -80 33 -27 11 -223 92 -435 180 -212 88 -529 219 -705 292 -176
73 -333 138 -350 145 -51 23 -445 185 -448 185 -2 0 -7 -3 -10 -7z"/>
<path d="M3370 3414 c-47 -31 -490 -328 -985 -659 -495 -331 -1098 -734 -1340
-895 -242 -161 -443 -296 -448 -300 -12 -10 166 -250 281 -377 63 -70 100
-109 125 -131 l25 -24 1216 1216 c669 669 1216 1218 1216 1221 0 8 -3 7 -90
-51z"/>
<path d="M3510 3455 c0 -11 4 -35 10 -54 5 -19 12 -53 15 -75 4 -23 10 -57 15
-76 5 -19 11 -48 14 -65 2 -16 9 -55 16 -85 6 -30 13 -66 15 -80 6 -32 12 -63
25 -125 14 -67 19 -94 26 -130 3 -16 9 -48 14 -70 5 -22 12 -56 15 -75 3 -19
22 -114 41 -210 20 -96 38 -185 40 -198 3 -13 18 -92 35 -175 17 -84 33 -163
35 -177 2 -14 9 -45 14 -70 5 -25 12 -56 14 -70 2 -14 7 -36 10 -50 3 -14 8
-36 10 -50 2 -14 20 -104 40 -200 19 -96 37 -186 40 -200 2 -14 14 -70 25
-125 11 -55 22 -113 25 -129 3 -16 10 -52 16 -80 6 -28 12 -62 15 -75 4 -21
105 -535 136 -690 11 -53 11 -53 42 -46 18 3 43 9 57 11 68 13 269 71 385 111
144 50 188 70 181 81 -4 7 -525 1263 -685 1652 -28 69 -60 145 -71 170 -17 40
-76 182 -215 520 -234 567 -355 852 -355 835z"/>
<path d="M3540 3444 c0 -5 139 -214 695 -1044 171 -256 511 -764 755 -1130
243 -366 445 -668 449 -672 9 -10 236 152 317 227 7 5 50 44 96 85 46 41 92
85 101 97 17 22 10 30 -1193 1233 -665 665 -1212 1210 -1215 1210 -3 0 -5 -2
-5 -6z"/>
</g>
</svg>
